<svg width="141" height="38" viewBox="0 0 141 38" fill="none" xmlns="http://www.w3.org/2000/svg">
<g clip-path="url(#clip0_175_11810)">
<path d="M49.1146 0V29.7449L40.1815 20.9477C39.5859 20.5801 38.4608 22.4842 38.1853 22.4842H21.6184C22.0892 23.375 26.6276 27.2139 26.5358 27.7229L16.4445 37.8209L-0.00235367 37.9434V37.7101L28.3271 9.35566L28.2188 8.77594L19.5046 0H49.1146Z" fill="#02A1AD"/>
<path d="M93.06 0L102.226 22.2509H97.4077C96.4308 21.148 96.1648 18.7844 95.3904 17.7027C95.1267 17.3374 95.0091 17.3657 94.6018 17.3186C93.6979 17.2149 86.3749 17.222 86.0077 17.4435L84.1316 22.2486H79.1954L88.3592 0H93.06ZM93.2954 13.1168C92.794 11.1207 91.8925 8.512 90.9532 6.66679C90.8403 6.44527 90.8049 6.11064 90.4777 6.08943C89.6939 8.42716 88.3168 10.7013 87.8908 13.1144H93.2954V13.1168Z" fill="white"/>
<path d="M73.7908 0V13.5857H76.6108V17.5684H73.7908V22.2533H69.09V17.5684H58.2808C58.2949 16.6022 57.318 14.6297 57.6876 13.8285L69.5608 0H73.7908ZM69.09 13.5834V6.79169L63.45 13.5834H69.09Z" fill="#02A1AD"/>
<path d="M110.451 0.233303V17.7993H121.495V22.2509H105.75V0.233303H110.451Z" fill="white"/>
<path d="M129.955 0.233303V17.7993H141V22.2509H125.255V0.233303H129.955Z" fill="white"/>
<path d="M36.8954 23.8887V36.0676L33.0491 32.5704L27.6115 37.9411H18.33L28.1082 27.8761C28.2377 27.6192 28.2071 27.4283 28.0917 27.1762C27.7127 26.349 25.3941 24.9115 24.9116 23.8887H36.8977H36.8954Z" fill="#FBC51E"/>
<path d="M90.0046 36.4211C89.9387 36.6615 89.1219 37.2176 88.8418 37.3708C86.1348 38.8484 81.9613 37.6889 81.5399 34.319C81.0526 30.4283 83.9362 28.0953 87.7189 28.8611C88.2392 28.9672 89.6256 29.5799 89.4444 30.2233C88.9006 32.1509 87.726 30.8454 86.8197 30.6969C82.8322 30.0442 82.5544 35.7424 85.89 36.0747C87.3918 36.2255 88.2227 36.0747 87.8931 34.4274H86.01V32.5539H90.0046C89.8186 33.5955 90.2588 35.5138 90.0046 36.4187V36.4211Z" fill="white"/>
<path d="M61.6869 28.8093C65.3355 29.3254 67.0798 33.5225 64.6293 36.3598C64.3304 36.7062 62.765 37.7101 62.3931 37.7101H57.5746V28.8093C58.8622 28.9366 60.4417 28.6326 61.6869 28.8093ZM59.4554 36.07C65.1331 36.9018 65.126 29.7755 59.4554 30.6828V36.07Z" fill="white"/>
<path d="M124.525 28.8352L128.075 37.7078C125.215 38.0471 126.363 37.4297 125.469 36.2066C125.097 35.7 121.7 35.707 121.521 35.8626C121.029 36.2891 121.51 38.4336 118.911 37.7078L122.46 28.8352H124.523H124.525ZM124.548 34.1941L123.494 31.3851C123.153 31.715 122.244 34.0103 122.437 34.1941H124.551H124.548Z" fill="white"/>
<path d="M113.035 28.8093V30.6851C112.536 30.7299 110.215 30.4778 110.215 31.0363V37.9458H108.335V30.6851H105.515C105.491 30.3081 105.418 28.8117 105.868 28.8117H113.035V28.8093Z" fill="white"/>
<path d="M136.535 28.8093V36.07H141V37.7078H134.656V28.8093H136.535Z" fill="white"/>
<path d="M74.497 28.8093H72.6162V37.7101H74.497V28.8093Z" fill="white"/>
<path d="M98.9354 28.8093H97.0546V37.7101H98.9354V28.8093Z" fill="white"/>
</g>
<defs>
<clipPath id="clip0_175_11810">
<rect width="141" height="38" fill="white"/>
</clipPath>
</defs>
</svg>
